<svg xmlns="http://www.w3.org/2000/svg" xmlns:xlink="http://www.w3.org/1999/xlink" width="1256" height="1118.08"><rect width="1256" height="1118.08" rx="5" ry="5" class="a"/><svg y="0%" x="0%"><circle cx="20" cy="20" r="6" fill="#ff5f58"/><circle cx="40" cy="20" r="6" fill="#ffbd2e"/><circle cx="60" cy="20" r="6" fill="#18c132"/></svg><svg height="1042.08" viewBox="0 0 120 104.208" width="1200" x="23" xmlns="http://www.w3.org/2000/svg" xmlns:xlink="http://www.w3.org/1999/xlink" y="58"><style>.a{fill:#282d35}.f,.g,.m,.n{fill:#e88388;white-space:pre}.g,.m,.n{fill:#4a4a4a}.m,.n{fill:#b9bfca;font-weight:700}.n{fill:#fff}.o{fill:#6890f0}.p{fill:#fff}.p,.q{white-space:pre}.q,.r{fill:#000}.s{white-space:pre}.s,.t{fill:#5fafff}.u{white-space:pre}.u,.v{fill:#444}.w{fill:#3a3a3a}.x{fill:#5f87af}.A,.y{fill:#3a3a3a;white-space:pre}.A{fill:#87d75f}.B{fill:#5f875f}.C{fill:#afd75f;white-space:pre}.E{fill:#87d75f}.G{fill:#b9bfca;white-space:pre}.H{fill:#ffffd7}.L{fill:#fff}.M{fill:#121212;white-space:pre}.Q{fill:#5fd75f}.R{fill:#5faf5f;white-space:pre}.S{fill:#080808}.V{fill:#87af5f}.W,.X,.Y{fill:#d7ff87;white-space:pre}.X,.Y{fill:#87af5f}.Y{fill:#5f8700}.aa{fill:#d7ff87}.ac{fill:#ffff87}.ad{white-space:pre}.ad,.ae{fill:#afaf5f}.af,.ah{fill:#87d700;white-space:pre}.ah{fill:#5f875f}.ai{fill:#afaf00}.aj{fill:#d7af00}.ak{fill:#d7d700}.am{fill:#5faf5f}.ap,.aq{fill:#5fd75f;white-space:pre}.aq{fill:#d7d700}.at{fill:#d7d75f}.au{fill:#080808;white-space:pre}.av{fill:#ffff5f}.ax{fill:#d7d75f;white-space:pre}.az{fill:#5f8700}.aE{fill:#111;white-space:pre}.aF{fill:#4e9a06}.aG{fill:#ff6;white-space:pre}.aM{fill:#b00000}.aR{fill:#4a4a4a}</style><g font-family="ui-monospace,SFMono-Regular,Menlo,Monaco,Consolas,'Liberation Mono','DejaVu Sans Mono',monospace" font-size="1.67"><defs><symbol id="1"><text x="10.02" y="1.67" class="f">│</text><text x="12.024" y="1.67" class="g">╭───────────────────────────────────────────╮</text><text x="58.116" y="1.67" class="g">╭────────────────────────────────────────────────╮</text><text x="109.218" y="1.67" class="f">│</text></symbol><symbol id="2"><text x="10.02" y="1.67" class="f">│</text><text x="12.024" y="1.67" class="g">╰───────────────────────────────────────────╯</text><text x="58.116" y="1.67" class="g">╰────────────────────────────────────────────────╯</text><text x="109.218" y="1.67" class="f">│</text></symbol><symbol id="a"><path fill="transparent" d="M0 0h120v49H0z"/></symbol></defs><path class="a" d="M0 0h120v104.208H0z"/><svg width="120"><svg><use xlink:href="#a"/><text x="10.02" y="14.696" class="f">╭─</text><text x="12.024" y="14.696" style="white-space:pre" fill="#71bef2" font-weight="700">⬤</text><text x="13.026" y="14.696" class="f">─</text><text x="14.028" y="14.696" style="white-space:pre" fill="#e88388" font-weight="700">●</text><text x="15.03" y="14.696" class="f">─</text><text x="16.032" y="14.696" style="white-space:pre" fill="#dbab79" font-weight="700">●</text><text x="17.034" y="14.696" class="f">─</text><text x="18.036" y="14.696" style="white-space:pre" fill="#a8cc8c" font-weight="700">●</text><text x="19.038" y="14.696" class="f">──────────────────────────────────────────────────────────────────────────────────────────╮</text><text x="10.02" y="16.867" class="f">│</text><text x="12.024" y="16.867" class="m">#186</text><text x="17.034" y="16.867" class="n">Politoed</text><path class="o" d="M100.2 15.197h7v2.171h-7z"/><text x="100.2" y="16.867" class="n">Water</text><text x="109.218" y="16.867" class="f">│</text><use xlink:href="#1" y="17.368"/><text x="10.02" y="21.209" class="f">│</text><text x="12.024" y="21.209" class="g">│</text><text x="56.112" y="21.209" class="g">│</text><text x="58.116" y="21.209" class="g">│</text><text x="60.12" y="21.209" class="p">The</text><text x="64.128" y="21.209" class="p">curled</text><text x="71.142" y="21.209" class="p">hair</text><text x="76.152" y="21.209" class="p">on</text><text x="79.158" y="21.209" class="p">Politoed’s</text><text x="90.18" y="21.209" class="p">head</text><text x="95.19" y="21.209" class="p">is</text><text x="98.196" y="21.209" class="p">proof</text><text x="107.214" y="21.209" class="g">│</text><text x="109.218" y="21.209" class="f">│</text><text x="10.02" y="23.38" class="f">│</text><text x="12.024" y="23.38" class="g">│</text><text x="56.112" y="23.38" class="g">│</text><text x="58.116" y="23.38" class="g">│</text><text x="60.12" y="23.38" class="p">of</text><text x="63.126" y="23.38" class="p">its</text><text x="67.134" y="23.38" class="p">status</text><text x="74.148" y="23.38" class="p">as</text><text x="77.154" y="23.38" class="p">a</text><text x="79.158" y="23.38" class="p">king.</text><text x="85.17" y="23.38" class="p">It</text><text x="88.176" y="23.38" class="p">is</text><text x="91.182" y="23.38" class="p">said</text><text x="96.192" y="23.38" class="p">that</text><text x="101.202" y="23.38" class="p">the</text><text x="107.214" y="23.38" class="g">│</text><text x="109.218" y="23.38" class="f">│</text><text x="10.02" y="25.551" class="f">│</text><text x="12.024" y="25.551" class="g">│</text><text x="26.052" y="25.551" class="q">▄</text><path class="r" d="M27.054 23.881h4v2.171h-4z"/><text x="27.054" y="25.551" class="s">▄▄▄▄</text><text x="31.062" y="25.551" class="q">▄▄</text><text x="56.112" y="25.551" class="g">│</text><text x="58.116" y="25.551" class="g">│</text><text x="60.12" y="25.551" class="p">longer</text><text x="67.134" y="25.551" class="p">and</text><text x="71.142" y="25.551" class="p">more</text><text x="76.152" y="25.551" class="p">curled</text><text x="83.166" y="25.551" class="p">the</text><text x="87.174" y="25.551" class="p">hair,</text><text x="93.186" y="25.551" class="p">the</text><text x="97.194" y="25.551" class="p">more</text><text x="107.214" y="25.551" class="g">│</text><text x="109.218" y="25.551" class="f">│</text><text x="10.02" y="27.722" class="f">│</text><text x="12.024" y="27.722" class="g">│</text><path class="r" d="M25.05 26.052h1v2.171h-1z"/><text x="25.05" y="27.722" class="p"></text><path class="t" d="M26.052 26.052h1v2.171h-1z"/><text x="26.052" y="27.722" class="p"></text><path class="t" d="M27.054 26.052h1v2.171h-1z"/><text x="27.054" y="27.722" class="u">▄</text><path class="v" d="M28.056 26.052h1v2.171h-1z"/><text x="28.056" y="27.722" class="s">▄</text><path class="w" d="M29.058 26.052h1v2.171h-1z"/><text x="29.058" y="27.722" class="s">▄</text><path class="x" d="M30.06 26.052h1v2.171h-1z"/><text x="30.06" y="27.722" class="y">▄</text><path class="t" d="M31.062 26.052h1v2.171h-1z"/><text x="31.062" y="27.722" class="q">▄</text><path class="t" d="M32.064 26.052h1v2.171h-1z"/><text x="32.064" y="27.722" style="white-space:pre" fill="#5f87af">▄</text><path class="r" d="M33.066 26.052h1v2.171h-1z"/><text x="33.066" y="27.722" class="s">▄</text><text x="34.068" y="27.722" class="q">▄</text><text x="56.112" y="27.722" class="g">│</text><text x="58.116" y="27.722" class="g">│</text><text x="60.12" y="27.722" class="p">respect</text><text x="68.136" y="27.722" class="p">this</text><text x="73.146" y="27.722" class="p">Pokémon</text><text x="81.162" y="27.722" class="p">earns</text><text x="87.174" y="27.722" class="p">from</text><text x="92.184" y="27.722" class="p">its</text><text x="96.192" y="27.722" class="p">peers.</text><text x="107.214" y="27.722" class="g">│</text><text x="109.218" y="27.722" class="f">│</text><text x="10.02" y="29.893" class="f">│</text><text x="12.024" y="29.893" class="g">│</text><text x="25.05" y="29.893" class="q">▀</text><path class="t" d="M26.052 28.223h1v2.171h-1z"/><text x="26.052" y="29.893" class="q">▄</text><path class="v" d="M27.054 28.223h1v2.171h-1z"/><text x="27.054" y="29.893" class="s">▄</text><path class="x" d="M28.056 28.223h1v2.171h-1z"/><text x="28.056" y="29.893" class="s">▄</text><path class="t" d="M29.058 28.223h1v2.171h-1z"/><text x="29.058" y="29.893" class="q">▄</text><text x="30.06" y="29.893" class="q">▀</text><text x="32.064" y="29.893" class="q">▀</text><path class="t" d="M33.066 28.223h1v2.171h-1z"/><text x="33.066" y="29.893" class="q">▄</text><path class="r" d="M34.068 28.223h1v2.171h-1z"/><text x="34.068" y="29.893" class="s">▄</text><text x="35.07" y="29.893" class="q">▄</text><text x="56.112" y="29.893" class="g">│</text><text x="58.116" y="29.893" class="g">│</text><text x="107.214" y="29.893" class="g">│</text><text x="109.218" y="29.893" class="f">│</text><text x="10.02" y="32.064" class="f">│</text><text x="12.024" y="32.064" class="g">│</text><text x="27.054" y="32.064" class="q">▀</text><path class="r" d="M28.056 30.394h1v2.171h-1z"/><text x="28.056" y="32.064" class="p"></text><text x="29.058" y="32.064" class="q">▄▄</text><path class="r" d="M31.062 30.394h2v2.171h-2z"/><text x="31.062" y="32.064" class="A">▄▄</text><path class="v" d="M33.066 30.394h1v2.171h-1z"/><text x="33.066" y="32.064" class="A">▄</text><path class="B" d="M34.068 30.394h1v2.171h-1z"/><text x="34.068" y="32.064" class="A">▄</text><path class="r" d="M35.07 30.394h1v2.171h-1z"/><text x="35.07" y="32.064" class="A">▄</text><text x="36.072" y="32.064" class="q">▄▄</text><text x="56.112" y="32.064" class="g">│</text><text x="58.116" y="32.064" class="g">│</text><text x="107.214" y="32.064" class="g">│</text><text x="109.218" y="32.064" class="f">│</text><text x="10.02" y="34.235" class="f">│</text><text x="12.024" y="34.235" class="g">│</text><text x="26.052" y="34.235" class="q">▄</text><path class="r" d="M27.054 32.565h1v2.171h-1z"/><text x="27.054" y="34.235" class="C">▄</text><path fill="#afd75f" d="M28.056 32.565h1v2.171h-1z"/><text x="28.056" y="34.235" class="p"></text><path class="E" d="M29.058 32.565h1v2.171h-1z"/><text x="29.058" y="34.235" style="white-space:pre" fill="#afff87">▄</text><path class="E" d="M30.06 32.565h8v2.171h-8z"/><text x="30.06" y="34.235" class="p"></text><path class="r" d="M38.076 32.565h1v2.171h-1z"/><text x="38.076" y="34.235" class="A">▄</text><text x="39.078" y="34.235" class="q">▄</text><text x="56.112" y="34.235" class="g">│</text><text x="58.116" y="34.235" class="g">│</text><text x="85.17" y="34.235" class="G">1/27</text><text x="90.18" y="34.235" class="G">(Alpha</text><text x="97.194" y="34.235" class="G">Sapphire)</text><text x="107.214" y="34.235" class="g">│</text><text x="109.218" y="34.235" class="f">│</text><text x="10.02" y="36.406" class="f">│</text><text x="12.024" y="36.406" class="g">│</text><path class="r" d="M25.05 34.736h1v2.171h-1z"/><text x="25.05" y="36.406" class="p"></text><path class="H" d="M26.052 34.736h1v2.171h-1z"/><text x="26.052" y="36.406" style="white-space:pre" fill="#afaf87">▄</text><path class="E" d="M27.054 34.736h1v2.171h-1z"/><text x="27.054" y="36.406" class="p"></text><path fill="#afff87" d="M28.056 34.736h2v2.171h-2z"/><text x="28.056" y="36.406" class="A">▄▄</text><path class="E" d="M30.06 34.736h3v2.171h-3z"/><text x="30.06" y="36.406" class="p"></text><path fill="#878787" d="M33.066 34.736h1v2.171h-1z"/><text x="33.066" y="36.406" class="p">▄</text><path class="L" d="M34.068 34.736h1v2.171h-1z"/><text x="34.068" y="36.406" class="M">▄</text><path fill="#eee" d="M35.07 34.736h1v2.171h-1z"/><text x="35.07" y="36.406" style="white-space:pre" fill="#d7d7af">▄</text><path class="E" d="M36.072 34.736h1v2.171h-1z"/><text x="36.072" y="36.406" style="white-space:pre" fill="#eee">▄</text><path class="E" d="M37.074 34.736h3v2.171h-3z"/><text x="37.074" y="36.406" class="p"></text><path class="r" d="M40.08 34.736h1v2.171h-1z"/><text x="40.08" y="36.406" class="p"></text><text x="56.112" y="36.406" class="g">│</text><text x="58.116" y="36.406" class="g">╰────────────────────────────────────────────────╯</text><text x="109.218" y="36.406" class="f">│</text><text x="10.02" y="38.577" class="f">│</text><text x="12.024" y="38.577" class="g">│</text><path class="r" d="M24.048 36.907h1v2.171h-1z"/><text x="24.048" y="38.577" class="p"></text><path class="E" d="M25.05 36.907h1v2.171h-1z"/><text x="25.05" y="38.577" class="p"></text><path class="Q" d="M26.052 36.907h1v2.171h-1z"/><text x="26.052" y="38.577" class="A">▄</text><path class="E" d="M27.054 36.907h1v2.171h-1z"/><text x="27.054" y="38.577" class="p"></text><path class="Q" d="M28.056 36.907h1v2.171h-1z"/><text x="28.056" y="38.577" class="A">▄</text><path class="E" d="M29.058 36.907h4v2.171h-4z"/><text x="29.058" y="38.577" class="p"></text><path class="r" d="M33.066 36.907h1v2.171h-1z"/><text x="33.066" y="38.577" class="R">▄</text><path class="r" d="M34.068 36.907h1v2.171h-1z"/><text x="34.068" y="38.577" class="p"></text><path class="S" d="M35.07 36.907h1v2.171h-1z"/><text x="35.07" y="38.577" style="white-space:pre" fill="#585858">▄</text><path class="L" d="M36.072 36.907h1v2.171h-1z"/><text x="36.072" y="38.577" class="p"></text><path class="E" d="M37.074 36.907h1v2.171h-1z"/><text x="37.074" y="38.577" class="p"></text><path class="E" d="M38.076 36.907h1v2.171h-1z"/><text x="38.076" y="38.577" style="white-space:pre" fill="#ff5faf">▄</text><path class="E" d="M39.078 36.907h2v2.171h-2z"/><text x="39.078" y="38.577" class="p"></text><path class="r" d="M41.082 36.907h1v2.171h-1z"/><text x="41.082" y="38.577" class="p"></text><text x="56.112" y="38.577" class="g">│</text><text x="58.116" y="38.577" class="g">╭────────────────────────────────────────────────╮</text><text x="109.218" y="38.577" class="f">│</text><text x="10.02" y="40.748" class="f">│</text><text x="12.024" y="40.748" class="g">│</text><path class="r" d="M24.048 39.078h1v2.171h-1z"/><text x="24.048" y="40.748" class="p"></text><path class="V" d="M25.05 39.078h1v2.171h-1z"/><text x="25.05" y="40.748" class="y">▄</text><path class="w" d="M26.052 39.078h1v2.171h-1z"/><text x="26.052" y="40.748" class="W">▄</text><path class="v" d="M27.054 39.078h2v2.171h-2z"/><text x="27.054" y="40.748" class="W">▄▄</text><path class="E" d="M29.058 39.078h4v2.171h-4z"/><text x="29.058" y="40.748" class="u">▄▄▄▄</text><path class="E" d="M33.066 39.078h1v2.171h-1z"/><text x="33.066" y="40.748" class="p"></text><path class="L" d="M34.068 39.078h1v2.171h-1z"/><text x="34.068" y="40.748" class="A">▄</text><path class="H" d="M35.07 39.078h1v2.171h-1z"/><text x="35.07" y="40.748" class="X">▄</text><path class="V" d="M36.072 39.078h1v2.171h-1z"/><text x="36.072" y="40.748" class="Y">▄</text><path fill="#ff5faf" d="M37.074 39.078h3v2.171h-3z"/><text x="37.074" y="40.748" class="p"></text><path class="E" d="M40.08 39.078h2v2.171h-2z"/><text x="40.08" y="40.748" class="p"></text><path class="r" d="M42.084 39.078h1v2.171h-1z"/><text x="42.084" y="40.748" class="p"></text><text x="56.112" y="40.748" class="g">│</text><text x="58.116" y="40.748" class="g">│</text><text x="60.12" y="40.748" class="G">Species</text><text x="71.142" y="40.748" class="p">Frog</text><text x="76.152" y="40.748" class="p">Pokémon</text><text x="107.214" y="40.748" class="g">│</text><text x="109.218" y="40.748" class="f">│</text><text x="10.02" y="42.919" class="f">│</text><text x="12.024" y="42.919" class="g">│</text><text x="25.05" y="42.919" class="q">▀</text><path class="aa" d="M26.052 41.249h1v2.171h-1z"/><text x="26.052" y="42.919" class="q">▄</text><path class="aa" d="M27.054 41.249h6v2.171h-6z"/><text x="27.054" y="42.919" class="p"></text><path class="v" d="M33.066 41.249h2v2.171h-2z"/><text x="33.066" y="42.919" class="W">▄▄</text><path class="w" d="M35.07 41.249h1v2.171h-1z"/><text x="35.07" y="42.919" style="white-space:pre" fill="#ffff87">▄</text><path class="ac" d="M36.072 41.249h1v2.171h-1z"/><text x="36.072" y="42.919" class="ad">▄</text><path class="ae" d="M37.074 41.249h1v2.171h-1z"/><text x="37.074" y="42.919" class="af">▄</text><path fill="#ff5f87" d="M38.076 41.249h1v2.171h-1z"/><text x="38.076" y="42.919" class="af">▄</text><path class="E" d="M39.078 41.249h3v2.171h-3z"/><text x="39.078" y="42.919" class="p"></text><path class="r" d="M42.084 41.249h1v2.171h-1z"/><text x="42.084" y="42.919" class="A">▄</text><text x="43.086" y="42.919" class="q">▄</text><text x="56.112" y="42.919" class="g">│</text><text x="58.116" y="42.919" class="g">│</text><text x="60.12" y="42.919" class="G">Egg</text><text x="64.128" y="42.919" class="G">Group</text><text x="71.142" y="42.919" class="p">Water1</text><text x="107.214" y="42.919" class="g">│</text><text x="109.218" y="42.919" class="f">│</text><text x="10.02" y="45.09" class="f">│</text><text x="12.024" y="45.09" class="g">│</text><text x="26.052" y="45.09" class="q">▄</text><path class="S" d="M27.054 43.42h1v2.171h-1z"/><text x="27.054" y="45.09" class="ah">▄</text><path class="w" d="M28.056 43.42h1v2.171h-1z"/><text x="28.056" y="45.09" class="p"></text><path class="ai" d="M29.058 43.42h1v2.171h-1z"/><text x="29.058" y="45.09" class="R">▄</text><path class="aj" d="M30.06 43.42h1v2.171h-1z"/><text x="30.06" y="45.09" class="R">▄</text><path class="ak" d="M31.062 43.42h2v2.171h-2z"/><text x="31.062" y="45.09" class="R">▄▄</text><path class="aj" d="M33.066 43.42h1v2.171h-1z"/><text x="33.066" y="45.09" class="R">▄</text><path class="ai" d="M34.068 43.42h1v2.171h-1z"/><text x="34.068" y="45.09" class="X">▄</text><path fill="#af8700" d="M35.07 43.42h1v2.171h-1z"/><text x="35.07" y="45.09" class="A">▄</text><path class="E" d="M36.072 43.42h4v2.171h-4z"/><text x="36.072" y="45.09" class="p"></text><path class="am" d="M40.08 43.42h1v2.171h-1z"/><text x="40.08" y="45.09" class="u">▄</text><path class="E" d="M41.082 43.42h3v2.171h-3z"/><text x="41.082" y="45.09" class="p"></text><path class="r" d="M44.088 43.42h1v2.171h-1z"/><text x="44.088" y="45.09" class="p"></text><text x="56.112" y="45.09" class="g">│</text><text x="58.116" y="45.09" class="g">│</text><text x="60.12" y="45.09" class="G">Gender</text><text x="71.142" y="45.09" style="white-space:pre" fill="#60a5fa">♂</text><text x="73.146" y="45.09" class="p">50%</text><text x="77.154" y="45.09" class="G">/</text><text x="79.158" y="45.09" style="white-space:pre" fill="#f472b6">♀</text><text x="81.162" y="45.09" class="p">50%</text><text x="107.214" y="45.09" class="g">│</text><text x="109.218" y="45.09" class="f">│</text><text x="10.02" y="47.261" class="f">│</text><text x="12.024" y="47.261" class="g">│</text><text x="24.048" y="47.261" class="q">▄</text><path class="S" d="M25.05 45.591h1v2.171h-1z"/><text x="25.05" y="47.261" class="y">▄</text><path class="B" d="M26.052 45.591h1v2.171h-1z"/><text x="26.052" y="47.261" class="p"></text><path class="v" d="M27.054 45.591h1v2.171h-1z"/><text x="27.054" y="47.261" class="p"></text><path class="Q" d="M28.056 45.591h1v2.171h-1z"/><text x="28.056" y="47.261" class="ah">▄</text><path class="am" d="M29.058 45.591h2v2.171h-2z"/><text x="29.058" y="47.261" class="W">▄▄</text><path class="aa" d="M31.062 45.591h2v2.171h-2z"/><text x="31.062" y="47.261" class="ap">▄▄</text><path class="aa" d="M33.066 45.591h1v2.171h-1z"/><text x="33.066" y="47.261" class="p"></text><path class="am" d="M34.068 45.591h2v2.171h-2z"/><text x="34.068" y="47.261" class="W">▄▄</text><path class="V" d="M36.072 45.591h1v2.171h-1z"/><text x="36.072" y="47.261" class="R">▄</text><path class="E" d="M37.074 45.591h3v2.171h-3z"/><text x="37.074" y="47.261" class="p"></text><path class="v" d="M40.08 45.591h1v2.171h-1z"/><text x="40.08" y="47.261" class="R">▄</text><path class="E" d="M41.082 45.591h1v2.171h-1z"/><text x="41.082" y="47.261" class="u">▄</text><path class="E" d="M42.084 45.591h3v2.171h-3z"/><text x="42.084" y="47.261" class="p"></text><path class="r" d="M45.09 45.591h1v2.171h-1z"/><text x="45.09" y="47.261" class="p"></text><text x="56.112" y="47.261" class="g">│</text><text x="58.116" y="47.261" class="g">│</text><text x="60.12" y="47.261" class="G">Height</text><text x="71.142" y="47.261" class="p">1.1</text><text x="75.15" y="47.261" class="p">m</text><text x="107.214" y="47.261" class="g">│</text><text x="109.218" y="47.261" class="f">│</text><text x="10.02" y="49.432" class="f">│</text><text x="12.024" y="49.432" class="g">│</text><text x="23.046" y="49.432" class="q">▄</text><path class="r" d="M24.048 47.762h1v2.171h-1z"/><text x="24.048" y="49.432" class="aq">▄</text><path class="ai" d="M25.05 47.762h1v2.171h-1z"/><text x="25.05" y="49.432" class="p"></text><path class="am" d="M26.052 47.762h1v2.171h-1z"/><text x="26.052" y="49.432" style="white-space:pre" fill="#afaf00">▄</text><path class="v" d="M27.054 47.762h1v2.171h-1z"/><text x="27.054" y="49.432" class="p"></text><path class="aa" d="M28.056 47.762h2v2.171h-2z"/><text x="28.056" y="49.432" class="p"></text><path class="am" d="M30.06 47.762h1v2.171h-1z"/><text x="30.06" y="49.432" class="p"></text><path class="am" d="M31.062 47.762h2v2.171h-2z"/><text x="31.062" y="49.432" class="W">▄▄</text><path class="am" d="M33.066 47.762h1v2.171h-1z"/><text x="33.066" y="49.432" class="p"></text><path class="aa" d="M34.068 47.762h2v2.171h-2z"/><text x="34.068" y="49.432" class="p"></text><path class="am" d="M36.072 47.762h1v2.171h-1z"/><text x="36.072" y="49.432" class="W">▄</text><path class="E" d="M37.074 47.762h2v2.171h-2z"/><text x="37.074" y="49.432" class="R">▄▄</text><path class="Q" d="M39.078 47.762h2v2.171h-2z"/><text x="39.078" y="49.432" class="p"></text><path class="v" d="M41.082 47.762h1v2.171h-1z"/><text x="41.082" y="49.432" class="p"></text><path class="ae" d="M42.084 47.762h1v2.171h-1z"/><text x="42.084" y="49.432" style="white-space:pre" fill="#d7ff5f">▄</text><path class="E" d="M43.086 47.762h1v2.171h-1z"/><text x="43.086" y="49.432" class="W">▄</text><path class="aa" d="M44.088 47.762h1v2.171h-1z"/><text x="44.088" y="49.432" class="p"></text><path class="r" d="M45.09 47.762h1v2.171h-1z"/><text x="45.09" y="49.432" class="aq">▄</text><text x="46.092" y="49.432" class="q">▄</text><text x="56.112" y="49.432" class="g">│</text><text x="58.116" y="49.432" class="g">│</text><text x="60.12" y="49.432" class="G">Weight</text><text x="71.142" y="49.432" class="p">33.9</text><text x="76.152" y="49.432" class="p">kg</text><text x="107.214" y="49.432" class="g">│</text><text x="109.218" y="49.432" class="f">│</text><text x="10.02" y="51.603" class="f">│</text><text x="12.024" y="51.603" class="g">│</text><text x="23.046" y="51.603" class="q">▀</text><path class="ak" d="M24.048 49.933h1v2.171h-1z"/><text x="24.048" y="51.603" class="q">▄</text><path class="at" d="M25.05 49.933h1v2.171h-1z"/><text x="25.05" y="51.603" class="au">▄</text><path class="w" d="M26.052 49.933h1v2.171h-1z"/><text x="26.052" y="51.603" class="p"></text><path class="B" d="M27.054 49.933h1v2.171h-1z"/><text x="27.054" y="51.603" class="p"></text><path class="v" d="M28.056 49.933h1v2.171h-1z"/><text x="28.056" y="51.603" class="p"></text><path class="av" d="M29.058 49.933h1v2.171h-1z"/><text x="29.058" y="51.603" class="C">▄</text><path class="B" d="M30.06 49.933h1v2.171h-1z"/><text x="30.06" y="51.603" class="p"></text><path class="av" d="M31.062 49.933h1v2.171h-1z"/><text x="31.062" y="51.603" class="X">▄</text><path fill="#5faf00" d="M32.064 49.933h1v2.171h-1z"/><text x="32.064" y="51.603" class="C">▄</text><path class="ai" d="M33.066 49.933h1v2.171h-1z"/><text x="33.066" y="51.603" class="C">▄</text><path class="ac" d="M34.068 49.933h1v2.171h-1z"/><text x="34.068" y="51.603" class="C">▄</text><path class="av" d="M35.07 49.933h1v2.171h-1z"/><text x="35.07" y="51.603" class="ax">▄</text><path class="at" d="M36.072 49.933h1v2.171h-1z"/><text x="36.072" y="51.603" class="Y">▄</text><path class="B" d="M37.074 49.933h1v2.171h-1z"/><text x="37.074" y="51.603" class="A">▄</text><path class="E" d="M38.076 49.933h2v2.171h-2z"/><text x="38.076" y="51.603" class="p"></text><path class="v" d="M40.08 49.933h1v2.171h-1z"/><text x="40.08" y="51.603" class="p"></text><path class="aa" d="M41.082 49.933h2v2.171h-2z"/><text x="41.082" y="51.603" class="p"></text><path class="aa" d="M43.086 49.933h1v2.171h-1z"/><text x="43.086" y="51.603" class="u">▄</text><path class="aa" d="M44.088 49.933h1v2.171h-1z"/><text x="44.088" y="51.603" class="p"></text><path class="aa" d="M45.09 49.933h1v2.171h-1z"/><text x="45.09" y="51.603" class="q">▄</text><text x="46.092" y="51.603" class="q">▀</text><text x="56.112" y="51.603" class="g">│</text><text x="58.116" y="51.603" class="g">│</text><text x="60.12" y="51.603" class="G">Generation</text><text x="71.142" y="51.603" class="p">Generation</text><text x="82.164" y="51.603" class="p">Ii</text><text x="107.214" y="51.603" class="g">│</text><text x="109.218" y="51.603" class="f">│</text><text x="10.02" y="53.774" class="f">│</text><text x="12.024" y="53.774" class="g">│</text><text x="26.052" y="53.774" class="q">▀</text><path class="B" d="M27.054 52.104h1v2.171h-1z"/><text x="27.054" y="53.774" class="au">▄</text><path class="B" d="M28.056 52.104h1v2.171h-1z"/><text x="28.056" y="53.774" class="y">▄</text><path class="v" d="M29.058 52.104h1v2.171h-1z"/><text x="29.058" y="53.774" class="ah">▄</text><path class="ak" d="M30.06 52.104h1v2.171h-1z"/><text x="30.06" y="53.774" class="u">▄</text><path class="B" d="M31.062 52.104h2v2.171h-2z"/><text x="31.062" y="53.774" class="u">▄▄</text><path class="ak" d="M33.066 52.104h2v2.171h-2z"/><text x="33.066" y="53.774" class="R">▄▄</text><path class="ak" d="M35.07 52.104h1v2.171h-1z"/><text x="35.07" y="53.774" class="ah">▄</text><path class="B" d="M36.072 52.104h1v2.171h-1z"/><text x="36.072" y="53.774" class="u">▄</text><path class="Q" d="M37.074 52.104h1v2.171h-1z"/><text x="37.074" y="53.774" class="p"></text><path class="E" d="M38.076 52.104h3v2.171h-3z"/><text x="38.076" y="53.774" class="ap">▄▄▄</text><path class="v" d="M41.082 52.104h2v2.171h-2z"/><text x="41.082" y="53.774" class="ap">▄▄</text><path class="ae" d="M43.086 52.104h1v2.171h-1z"/><text x="43.086" y="53.774" class="q">▄</text><path class="ac" d="M44.088 52.104h1v2.171h-1z"/><text x="44.088" y="53.774" class="q">▄</text><text x="45.09" y="53.774" class="q">▀</text><text x="56.112" y="53.774" class="g">│</text><text x="58.116" y="53.774" class="g">│</text><text x="60.12" y="53.774" class="G">Growth</text><text x="71.142" y="53.774" class="p">Medium</text><text x="78.156" y="53.774" class="p">Slow</text><text x="107.214" y="53.774" class="g">│</text><text x="109.218" y="53.774" class="f">│</text><text x="10.02" y="55.945" class="f">│</text><text x="12.024" y="55.945" class="g">│</text><path class="r" d="M26.052 54.275h1v2.171h-1z"/><text x="26.052" y="55.945" class="p"></text><path class="at" d="M27.054 54.275h1v2.171h-1z"/><text x="27.054" y="55.945" class="au">▄</text><path fill="#5f5f00" d="M28.056 54.275h1v2.171h-1z"/><text x="28.056" y="55.945" class="ax">▄</text><path class="az" d="M29.058 54.275h1v2.171h-1z"/><text x="29.058" y="55.945" class="ad">▄</text><path class="az" d="M30.06 54.275h1v2.171h-1z"/><text x="30.06" y="55.945" class="au">▄</text><path class="am" d="M31.062 54.275h1v2.171h-1z"/><text x="31.062" y="55.945" class="q">▄</text><text x="32.064" y="55.945" class="q">▀▀▀▀▀</text><path class="w" d="M37.074 54.275h1v2.171h-1z"/><text x="37.074" y="55.945" class="M">▄</text><path class="E" d="M38.076 54.275h1v2.171h-1z"/><text x="38.076" y="55.945" class="y">▄</text><path class="Q" d="M39.078 54.275h1v2.171h-1z"/><text x="39.078" y="55.945" class="u">▄</text><path class="Q" d="M40.08 54.275h1v2.171h-1z"/><text x="40.08" y="55.945" class="ah">▄</text><path class="E" d="M41.082 54.275h1v2.171h-1z"/><text x="41.082" y="55.945" class="y">▄</text><path fill="#121212" d="M42.084 54.275h1v2.171h-1z"/><text x="42.084" y="55.945" class="ah">▄</text><text x="43.086" y="55.945" class="q">▄</text><text x="56.112" y="55.945" class="g">│</text><text x="58.116" y="55.945" class="g">│</text><text x="60.12" y="55.945" class="G">Capture</text><text x="71.142" y="55.945" class="p">45</text><text x="107.214" y="55.945" class="g">│</text><text x="109.218" y="55.945" class="f">│</text><text x="10.02" y="58.116" class="f">│</text><text x="12.024" y="58.116" class="g">│</text><text x="28.056" y="58.116" class="q">▀▀</text><text x="36.072" y="58.116" class="q">▀</text><path class="ac" d="M37.074 56.446h1v2.171h-1z"/><text x="37.074" y="58.116" class="q">▄</text><path class="ae" d="M38.076 56.446h1v2.171h-1z"/><text x="38.076" y="58.116" class="q">▄</text><path class="B" d="M39.078 56.446h1v2.171h-1z"/><text x="39.078" y="58.116" style="white-space:pre" fill="#ffff5f">▄</text><path class="B" d="M40.08 56.446h1v2.171h-1z"/><text x="40.08" y="58.116" class="C">▄</text><path class="ak" d="M41.082 56.446h2v2.171h-2z"/><text x="41.082" y="58.116" class="q">▄▄</text><text x="43.086" y="58.116" class="q">▀</text><text x="56.112" y="58.116" class="g">│</text><text x="58.116" y="58.116" class="g">│</text><text x="60.12" y="58.116" class="G">EV</text><text x="63.126" y="58.116" class="G">Yield</text><text x="71.142" y="58.116" class="p">SpD</text><text x="75.15" y="58.116" class="p">3</text><text x="107.214" y="58.116" class="g">│</text><text x="109.218" y="58.116" class="f">│</text><text x="10.02" y="60.287" class="f">│</text><text x="12.024" y="60.287" class="g">│</text><text x="39.078" y="60.287" class="q">▀▀</text><text x="56.112" y="60.287" class="g">│</text><text x="58.116" y="60.287" class="g">│</text><text x="60.12" y="60.287" class="G">Ability</text><text x="71.142" y="60.287" class="p">Water</text><text x="77.154" y="60.287" class="p">Absorb</text><text x="107.214" y="60.287" class="g">│</text><text x="109.218" y="60.287" class="f">│</text><text x="10.02" y="62.458" class="f">│</text><text x="12.024" y="62.458" class="g">│</text><text x="56.112" y="62.458" class="g">│</text><text x="58.116" y="62.458" class="g">│</text><text x="71.142" y="62.458" class="p">Damp</text><text x="107.214" y="62.458" class="g">│</text><text x="109.218" y="62.458" class="f">│</text><text x="10.02" y="64.629" class="f">│</text><text x="12.024" y="64.629" class="g">│</text><text x="56.112" y="64.629" class="g">│</text><text x="58.116" y="64.629" class="g">│</text><text x="71.142" y="64.629" class="p">Drizzle</text><text x="79.158" y="64.629" class="p">(Hidden)</text><text x="107.214" y="64.629" class="g">│</text><text x="109.218" y="64.629" class="f">│</text><use xlink:href="#2" y="65.13"/><use xlink:href="#1" y="67.301"/><text x="10.02" y="71.142" class="f">│</text><text x="12.024" y="71.142" class="g">│</text><text x="14.028" y="71.142" class="n">Stats</text><text x="52.104" y="71.142" class="m">500</text><text x="56.112" y="71.142" class="g">│</text><text x="58.116" y="71.142" class="g">│</text><text x="60.12" y="71.142" class="n">Damage</text><text x="67.134" y="71.142" class="n">Taken</text><text x="107.214" y="71.142" class="g">│</text><text x="109.218" y="71.142" class="f">│</text><text x="10.02" y="73.313" class="f">│</text><text x="12.024" y="73.313" class="g">│</text><text x="56.112" y="73.313" class="g">│</text><text x="58.116" y="73.313" class="g">│</text><text x="107.214" y="73.313" class="g">│</text><text x="109.218" y="73.313" class="f">│</text><text x="10.02" y="75.484" class="f">│</text><text x="12.024" y="75.484" class="g">│</text><text x="14.028" y="75.484" class="p">HP</text><text x="27.054" y="75.484" class="p">90</text><text x="30.06" y="75.484" style="white-space:pre" fill="#8ee85d">━━━━━━━━━━━</text><text x="41.082" y="75.484" class="y">━━━━━━━━━━━━━━</text><text x="56.112" y="75.484" class="g">│</text><text x="58.116" y="75.484" class="g">│</text><text x="60.12" y="75.484" class="G">Weak</text><path fill="#f8d030" d="M67.134 73.814h5v2.171h-5z"/><text x="67.134" y="75.484" class="aE">ELE</text><path class="aF" d="M72.144 73.814h4v2.171h-4z"/><text x="72.144" y="75.484" class="aG">2x</text><path fill="#78c850" d="M76.152 73.814h5v2.171h-5z"/><text x="76.152" y="75.484" class="aE">GRA</text><path class="aF" d="M81.162 73.814h4v2.171h-4z"/><text x="81.162" y="75.484" class="aG">2x</text><text x="107.214" y="75.484" class="g">│</text><text x="109.218" y="75.484" class="f">│</text><text x="10.02" y="77.655" class="f">│</text><text x="12.024" y="77.655" class="g">│</text><text x="14.028" y="77.655" class="p">Attack</text><text x="27.054" y="77.655" class="p">75</text><text x="30.06" y="77.655" style="white-space:pre" fill="#f6dd66">━━━━━━━━━</text><text x="39.078" y="77.655" class="y">━━━━━━━━━━━━━━━━</text><text x="56.112" y="77.655" class="g">│</text><text x="58.116" y="77.655" class="g">│</text><text x="107.214" y="77.655" class="g">│</text><text x="109.218" y="77.655" class="f">│</text><text x="10.02" y="79.826" class="f">│</text><text x="12.024" y="79.826" class="g">│</text><text x="14.028" y="79.826" class="p">Defense</text><text x="27.054" y="79.826" class="p">75</text><text x="30.06" y="79.826" style="white-space:pre" fill="#f39a5c">━━━━━━━━━</text><text x="39.078" y="79.826" class="y">━━━━━━━━━━━━━━━━</text><text x="56.112" y="79.826" class="g">│</text><text x="58.116" y="79.826" class="g">│</text><text x="107.214" y="79.826" class="g">│</text><text x="109.218" y="79.826" class="f">│</text><text x="10.02" y="81.997" class="f">│</text><text x="12.024" y="81.997" class="g">│</text><text x="14.028" y="81.997" class="p">Sp.</text><text x="18.036" y="81.997" class="p">Attack</text><text x="27.054" y="81.997" class="p">90</text><text x="30.06" y="81.997" style="white-space:pre" fill="#62cbe0">━━━━━━━━━━━</text><text x="41.082" y="81.997" class="y">━━━━━━━━━━━━━━</text><text x="56.112" y="81.997" class="g">│</text><text x="58.116" y="81.997" class="g">│</text><text x="60.12" y="81.997" class="G">Resist</text><path fill="#f08030" d="M67.134 80.327h5v2.171h-5z"/><text x="67.134" y="81.997" class="p">FIR</text><path class="aM" d="M72.144 80.327h5v2.171h-5z"/><text x="72.144" y="81.997" class="aG">1/2</text><path fill="#98d8d8" d="M77.154 80.327h5v2.171h-5z"/><text x="77.154" y="81.997" class="aE">ICE</text><path class="aM" d="M82.164 80.327h5v2.171h-5z"/><text x="82.164" y="81.997" class="aG">1/2</text><path fill="#b8b8d0" d="M87.174 80.327h5v2.171h-5z"/><text x="87.174" y="81.997" class="aE">STE</text><path class="aM" d="M92.184 80.327h5v2.171h-5z"/><text x="92.184" y="81.997" class="aG">1/2</text><text x="107.214" y="81.997" class="g">│</text><text x="109.218" y="81.997" class="f">│</text><text x="10.02" y="84.168" class="f">│</text><text x="12.024" y="84.168" class="g">│</text><text x="14.028" y="84.168" class="p">Sp.</text><text x="18.036" y="84.168" class="p">Defense</text><text x="26.052" y="84.168" class="p">100</text><text x="30.06" y="84.168" style="white-space:pre" fill="#8296df">━━━━━━━━━━━━━</text><text x="43.086" y="84.168" class="y">━━━━━━━━━━━━</text><text x="56.112" y="84.168" class="g">│</text><text x="58.116" y="84.168" class="g">│</text><path class="o" d="M67.134 82.498h5v2.171h-5z"/><text x="67.134" y="84.168" class="p">WAT</text><path class="aM" d="M72.144 82.498h5v2.171h-5z"/><text x="72.144" y="84.168" class="aG">1/2</text><text x="107.214" y="84.168" class="g">│</text><text x="109.218" y="84.168" class="f">│</text><text x="10.02" y="86.339" class="f">│</text><text x="12.024" y="86.339" class="g">│</text><text x="14.028" y="86.339" class="p">Speed</text><text x="27.054" y="86.339" class="p">70</text><text x="30.06" y="86.339" style="white-space:pre" fill="#d95dc3">━━━━━━━━━</text><text x="39.078" y="86.339" class="y">━━━━━━━━━━━━━━━━</text><text x="56.112" y="86.339" class="g">│</text><text x="58.116" y="86.339" class="g">│</text><text x="107.214" y="86.339" class="g">│</text><text x="109.218" y="86.339" class="f">│</text><use xlink:href="#2" y="86.84"/><text x="10.02" y="90.681" class="f">╰──────────────────────────────────────────────────────────────────────────────────────────────────╯</text><path class="aR" d="M10.02 91.182h2v2.171h-2z"/><text x="10.02" y="92.852" class="n">&lt;</text><path class="aR" d="M12.024 91.182h4v2.171h-4z"/><text x="12.024" y="92.852" class="m">#185</text><path class="aR" d="M16.032 91.182h10v2.171h-10z"/><text x="16.032" y="92.852" class="n">Sudowoodo</text><path class="aR" d="M97.194 91.182h4v2.171h-4z"/><text x="97.194" y="92.852" class="m">#187</text><path class="aR" d="M101.202 91.182h9v2.171h-9z"/><text x="101.202" y="92.852" class="n">Hoppip &gt;</text><text x="13.026" y="101.536" class="p">h/l</text><text x="17.034" y="101.536" class="G">prev/next</text><text x="27.054" y="101.536" class="G">|</text><text x="29.058" y="101.536" class="p">a</text><text x="31.062" y="101.536" class="G">abilities</text><text x="41.082" y="101.536" class="G">|</text><text x="43.086" y="101.536" class="p">e</text><text x="45.09" y="101.536" class="G">evolution</text><text x="55.11" y="101.536" class="G">|</text><text x="57.114" y="101.536" class="p">d/D</text><text x="61.122" y="101.536" class="G">desc</text><text x="66.132" y="101.536" class="G">|</text><text x="68.136" y="101.536" class="p">o</text><text x="70.14" y="101.536" class="G">web</text><text x="74.148" y="101.536" class="G">|</text><text x="76.152" y="101.536" class="p">s</text><text x="78.156" y="101.536" class="G">shiny</text><text x="84.168" y="101.536" class="G">|</text><text x="86.172" y="101.536" class="p">/</text><text x="88.176" y="101.536" class="G">search</text><text x="95.19" y="101.536" class="G">|</text><text x="97.194" y="101.536" class="p">q/esc</text><text x="103.206" y="101.536" class="G">exit</text></svg></svg></g></svg></svg>